<svg width="147" height="48" viewBox="0 0 147 48" fill="none" xmlns="http://www.w3.org/2000/svg">
<rect width="147" height="48" rx="8" fill="#1B1A1C"/>
<g clip-path="url(#clip0_3_211)">
<path d="M36.2192 17.9845C31.8598 17.9845 28.4537 21.2938 28.4537 25.7239C28.4537 30.154 31.7738 33.435 36.2192 33.435C40.6645 33.435 44.0424 30.0974 44.0424 25.6956C44.0424 21.3221 40.7223 17.9845 36.2192 17.9845ZM36.2486 30.2423C33.7661 30.2423 31.947 28.3142 31.947 25.725C31.947 23.1063 33.7367 21.1794 36.2192 21.1794C38.7311 21.1794 40.5491 23.1358 40.5491 25.725C40.5491 28.3142 38.7311 30.2423 36.2486 30.2423ZM44.9944 21.3515H47.1599V33.1485H50.6239V18.2721H44.9944V21.3515ZM19.7361 21.1783C21.5552 21.1783 22.9985 22.3003 23.5464 23.9691H27.213C26.5485 20.4017 23.6042 17.9845 19.7655 17.9845C15.4062 17.9845 12 21.2938 12 25.725C12 30.1562 15.3201 33.436 19.7655 33.436C23.5181 33.436 26.5202 31.0189 27.1846 27.4221H23.5464C23.0268 29.0909 21.5835 30.2423 19.7644 30.2423C17.2525 30.2423 15.4922 28.3142 15.4922 25.725C15.4933 23.1063 17.2253 21.1783 19.7361 21.1783ZM110.811 24.286L108.271 23.9124C107.059 23.7403 106.193 23.3373 106.193 22.3874C106.193 21.3515 107.319 20.8341 108.848 20.8341C110.523 20.8341 111.591 21.553 111.822 22.7327H115.171C114.795 19.7405 112.485 17.9856 108.935 17.9856C105.269 17.9856 102.844 19.8559 102.844 22.5029C102.844 25.0344 104.432 26.5027 107.636 26.9624L110.176 27.336C111.418 27.5082 112.111 27.9983 112.111 28.9188C112.111 30.0985 110.898 30.5876 109.224 30.5876C107.174 30.5876 106.019 29.7532 105.846 28.4874H102.44C102.758 31.3936 105.038 33.436 109.195 33.436C112.977 33.436 115.488 31.7095 115.488 28.7456C115.488 26.0986 113.67 24.7174 110.811 24.286ZM48.8919 12.1438C47.6218 12.1438 46.6687 13.0642 46.6687 14.33C46.6687 15.5957 47.6207 16.5162 48.8919 16.5162C50.162 16.5162 51.1151 15.5957 51.1151 14.33C51.1151 13.0642 50.162 12.1438 48.8919 12.1438ZM99.7267 23.3656C99.7267 20.1435 97.7638 17.9856 93.6071 17.9856C89.6813 17.9856 87.4875 19.9714 87.0539 23.0214H90.4895C90.6627 21.8417 91.5864 20.8635 93.5493 20.8635C95.3107 20.8635 96.1767 21.6402 96.1767 22.59C96.1767 23.8275 94.5885 24.1433 92.6256 24.3449C89.9699 24.6324 86.6792 25.5529 86.6792 29.0059C86.6792 31.6823 88.6715 33.4077 91.8468 33.4077C94.3293 33.4077 95.888 32.3718 96.6679 30.7313C96.7834 32.1986 97.8803 33.1485 99.4108 33.1485H101.431V30.0701H99.7277V23.3656H99.7267ZM96.3205 27.1062C96.3205 29.092 94.5885 30.5592 92.4807 30.5592C91.1812 30.5592 90.0843 30.0124 90.0843 28.8621C90.0843 27.3949 91.8457 26.9918 93.4622 26.8197C95.0209 26.6759 95.8869 26.3306 96.3205 25.6683V27.1062ZM77.9322 17.9845C75.9977 17.9845 74.3812 18.7906 73.2265 20.1424V12H69.7626V33.1485H73.1688V31.1921C74.3234 32.6016 75.9694 33.436 77.9322 33.436C82.089 33.436 85.2359 30.1562 85.2359 25.725C85.2359 21.2938 82.0312 17.9845 77.9322 17.9845ZM77.4127 30.2423C74.9302 30.2423 73.1111 28.3142 73.1111 25.725C73.1111 23.1358 74.9585 21.1794 77.441 21.1794C79.9529 21.1794 81.7132 23.1074 81.7132 25.725C81.7132 28.3142 79.8951 30.2423 77.4127 30.2423ZM61.4775 17.9845C59.226 17.9845 57.7532 18.905 56.8873 20.2001V18.2721H53.4517V33.1474H56.9156V25.0627C56.9156 22.7894 58.3589 21.1783 60.495 21.1783C62.4873 21.1783 63.728 22.5879 63.728 24.6313V33.1485H67.1919V24.3732C67.193 20.6315 65.2595 17.9845 61.4775 17.9845ZM132 25.2359C132 20.9779 128.882 17.9856 124.696 17.9856C120.251 17.9856 116.989 21.3232 116.989 25.725C116.989 30.3577 120.482 33.436 124.754 33.436C128.363 33.436 131.192 31.3065 131.913 28.2859H128.304C127.784 29.6094 126.514 30.3577 124.811 30.3577C122.587 30.3577 120.913 28.9765 120.539 26.5594H131.999V25.2359H132ZM120.741 24.0845C121.29 22.0127 122.849 21.0062 124.639 21.0062C126.602 21.0062 128.103 22.1282 128.449 24.0845H120.741Z" fill="white" fill-opacity="0.4"/>
</g>
<defs>
<clipPath id="clip0_3_211">
<rect width="120" height="21.436" fill="white" transform="translate(12 12)"/>
</clipPath>
</defs>
</svg>
