<svg width="190" height="48" viewBox="0 0 190 48" fill="none" xmlns="http://www.w3.org/2000/svg">
<rect width="190" height="48" rx="8" fill="#1B1A1C"/>
<g clip-path="url(#clip0_3_192)">
<path d="M34.9606 26.3896C34.4874 26.6262 33.8959 26.7445 33.4227 26.5079C32.8312 26.2713 32.5946 25.4432 32.5946 24.3785V21.1845C32.5946 19.6467 32.0032 18.582 31.0568 18.2271C29.2823 17.7539 27.9811 19.765 27.5079 20.7114L24.4322 25.5615V19.6467C24.4322 18.2271 23.959 17.3991 23.0126 17.1625C22.4211 16.9259 21.5931 17.0442 20.765 18.3454L13.9038 29.2287C13.0757 27.4543 12.4842 25.5615 12.4842 23.6688C12.4842 17.1625 17.8076 11.7208 24.1956 11.7208C30.5836 11.7208 36.0252 16.9259 36.0252 23.5505C36.1435 24.7334 35.7886 25.7981 34.9606 26.3896ZM38.7461 23.5505C38.7461 15.5063 32.358 9 24.4322 9C16.5063 9 10 15.5063 10 23.5505C10 31.5946 16.388 38.1009 24.3139 38.1009C27.9811 38.1009 31.2934 36.6814 34.1325 34.1972C34.6057 33.724 34.724 32.7776 34.2508 32.3044C33.7776 31.8312 32.9495 31.7129 32.358 32.1861C30.2287 34.1972 27.3896 35.3801 24.3139 35.3801C20.8833 35.3801 17.8076 33.8423 15.6782 31.4763L21.8297 21.6577V26.153C21.8297 28.2823 22.6577 28.9921 23.3675 29.2287C24.0773 29.4653 25.142 29.347 26.3249 27.4543L29.6372 22.0126C29.7555 21.776 29.8738 21.776 29.8738 21.5394V24.2603C29.8738 26.2713 30.7019 27.9274 32.1215 28.7555C33.4227 29.5836 34.9606 29.4653 36.2618 28.5189C38.0363 27.5726 38.7461 25.7981 38.7461 23.5505ZM59.2114 19.0552C59.4479 19.2918 59.8028 19.6467 59.8028 19.8833C59.8028 20.4748 59.3297 20.9479 58.8565 20.9479C58.7382 20.9479 58.6199 20.948 58.5016 20.8297C57.7918 20.3565 57.082 20.0016 56.2539 20.0016C54.2429 20.0016 52.8233 21.6577 52.8233 23.6688C52.8233 25.6798 54.2429 27.336 56.2539 27.336C57.2003 27.336 58.1467 26.9811 58.7382 26.2713C58.9748 26.153 59.0931 26.0347 59.3297 26.0347C59.9211 26.0347 60.276 26.3896 60.276 26.9811C60.276 27.336 60.0394 27.6909 59.8028 27.8091C58.8565 28.6372 57.5552 29.2287 56.1356 29.2287C53.0599 29.2287 50.5757 26.7445 50.5757 23.5505C50.5757 20.3565 53.0599 17.8722 56.1356 17.8722C57.2003 18.1088 58.3833 18.4637 59.2114 19.0552ZM64.8896 21.4211C66.9006 21.4211 68.6751 23.1956 68.6751 25.4432C68.6751 27.5726 66.9006 29.4653 64.8896 29.4653C62.7603 29.4653 60.8675 27.5726 60.8675 25.4432C60.8675 23.1956 62.642 21.4211 64.8896 21.4211ZM64.7713 27.4543C65.5994 27.4543 66.4274 26.6262 66.4274 25.4432C66.4274 24.2603 65.5994 23.5505 64.7713 23.5505C63.8249 23.5505 62.8785 24.2603 62.8785 25.5615C62.9968 26.6262 63.8249 27.4543 64.7713 27.4543ZM70.0946 28.164V22.6041C70.0946 22.0126 70.5678 21.5394 71.1593 21.5394C71.7508 21.5394 72.224 22.0126 72.224 22.6041V28.164C72.224 28.7555 71.7508 29.2287 71.1593 29.2287C70.5678 29.2287 70.0946 28.7555 70.0946 28.164ZM69.858 19.5284C69.858 18.8186 70.4495 18.2271 71.1593 18.2271C71.8691 18.2271 72.4606 18.8186 72.4606 19.5284C72.4606 20.2382 71.8691 20.8297 71.1593 20.8297C70.3312 20.7114 69.858 20.2382 69.858 19.5284ZM76.2461 25.2066V28.2823C76.2461 28.8738 75.7729 29.347 75.1814 29.347C74.5899 29.347 74.1167 28.8738 74.1167 28.2823V22.3675C74.1167 21.8943 74.4716 21.5394 74.9448 21.5394C75.418 21.5394 75.7729 21.8943 75.7729 22.3675C76.6009 21.5394 77.429 21.4211 78.1388 21.4211C80.2681 21.4211 81.2145 23.0773 81.2145 24.97V28.2823C81.2145 28.8738 80.7413 29.347 80.1498 29.347C79.5584 29.347 79.0852 28.8738 79.0852 28.2823V25.2066C79.0852 24.2603 78.9669 23.4322 77.6656 23.4322C76.7192 23.5505 76.2461 24.2603 76.2461 25.2066ZM88.3123 26.3896C88.0757 26.3896 87.9574 26.2713 87.7208 26.153L85.2366 23.4322V28.2823C85.2366 28.8738 84.7634 29.347 84.1719 29.347C83.5804 29.347 83.1073 28.8738 83.1073 28.2823V18.582C83.2256 18.3454 83.3438 18.3454 83.4621 18.3454C83.6987 18.3454 83.817 18.582 83.9353 18.582L87.9574 23.0773C88.0757 23.1956 88.194 23.3139 88.3123 23.3139C88.4306 23.3139 88.5489 23.1956 88.6672 23.0773L92.6893 18.582C92.8076 18.4637 92.9259 18.3454 93.1625 18.3454C93.3991 18.3454 93.5173 18.4637 93.5173 18.582V28.2823C93.5173 28.8738 93.0442 29.347 92.4527 29.347C91.8612 29.347 91.388 28.8738 91.388 28.2823V23.4322L88.9038 26.153C88.6672 26.2713 88.5489 26.3896 88.3123 26.3896ZM98.7224 27.4543C99.6688 27.4543 100.497 26.6262 100.497 25.4432C100.497 24.2603 99.6688 23.5505 98.7224 23.5505C97.776 23.5505 96.9479 24.3785 96.9479 25.5615C97.0662 26.5079 97.776 27.4543 98.7224 27.4543ZM101.088 28.5189V28.2823C100.733 29.1104 99.3139 29.4653 98.4858 29.4653C96.4748 29.4653 94.9369 27.5726 94.9369 25.4432C94.9369 23.3139 96.4748 21.4211 98.6041 21.4211C98.959 21.4211 100.142 21.5394 101.088 22.6041V22.3675C101.088 21.8943 101.443 21.5394 101.916 21.5394C102.39 21.5394 102.744 21.8943 102.744 22.3675V28.2823C102.744 28.7555 102.39 29.1104 101.916 29.1104C101.443 29.347 101.088 28.8738 101.088 28.5189ZM108.659 23.5505H108.423C107.003 23.6688 106.767 24.3785 106.767 25.3249V28.2823C106.767 28.8738 106.293 29.347 105.702 29.347C105.11 29.347 104.637 28.8738 104.637 28.2823V22.3675C104.637 21.8943 104.992 21.5394 105.465 21.5394C105.938 21.5394 106.293 21.8943 106.293 22.3675C107.121 21.5394 107.713 21.5394 108.423 21.4211H108.659C109.132 21.4211 109.606 21.8943 109.606 22.3675C109.724 22.959 109.251 23.5505 108.659 23.5505ZM117.058 27.6909C117.177 27.9274 117.295 27.9274 117.295 28.164C117.295 28.7555 116.822 29.2287 116.23 29.2287C115.875 29.2287 115.521 28.9921 115.284 28.6372L112.8 25.6798V28.164C112.8 28.7555 112.326 29.2287 111.735 29.2287C111.144 29.2287 110.67 28.7555 110.67 28.164V19.4101C110.67 18.8186 111.144 18.3454 111.735 18.3454C112.326 18.3454 112.8 18.8186 112.8 19.4101V24.8517L115.284 22.1309C115.521 21.8943 115.875 21.5394 116.23 21.5394C116.822 21.5394 117.295 22.0126 117.295 22.6041C117.295 22.8407 117.295 22.959 117.177 23.0773L115.166 25.2066L117.058 27.6909ZM121.317 23.5505C120.726 23.5505 119.779 23.7871 119.779 24.8517H122.855C122.855 23.7871 121.909 23.5505 121.317 23.5505ZM124.156 26.153H119.779C119.779 27.4543 121.08 27.5726 121.554 27.5726C121.909 27.5726 122.5 27.4543 122.973 27.336C123.091 27.2177 123.328 27.0994 123.565 27.0994C124.038 27.0994 124.393 27.4543 124.393 27.9274C124.393 28.164 124.156 28.5189 123.92 28.7555C123.21 29.2287 122.382 29.347 121.554 29.347C119.424 29.347 117.532 28.164 117.532 25.4432C117.532 23.3139 118.596 21.4211 121.199 21.4211C123.21 21.4211 124.866 22.8407 124.866 25.2066C124.984 25.6798 124.629 26.153 124.156 26.153ZM130.189 29.4653H129.598C127.942 29.4653 126.995 28.7555 126.995 26.153V23.5505H126.404C125.931 23.5505 125.457 23.0773 125.457 22.6041C125.457 22.0126 125.931 21.6577 126.404 21.6577H126.995V19.6467C126.995 19.0552 127.468 18.582 128.06 18.582C128.651 18.582 129.125 19.0552 129.125 19.6467V21.6577H129.953C130.426 21.6577 130.899 22.1309 130.899 22.6041C130.899 23.0773 130.426 23.5505 129.953 23.5505H129.125V25.7981C129.125 27.2177 129.243 27.5726 129.834 27.5726H130.071C130.544 27.5726 131.017 27.9274 131.017 28.5189C131.136 28.9921 130.662 29.4653 130.189 29.4653ZM140.599 19.0552C140.836 19.2918 141.191 19.6467 141.191 19.8833C141.191 20.4748 140.718 20.9479 140.244 20.9479C140.126 20.9479 140.008 20.948 139.89 20.8297C139.18 20.3565 138.47 20.0016 137.642 20.0016C135.631 20.0016 134.211 21.6577 134.211 23.6688C134.211 25.6798 135.631 27.336 137.642 27.336C138.588 27.336 139.535 26.9811 140.126 26.2713C140.363 26.153 140.481 26.0347 140.718 26.0347C141.309 26.0347 141.664 26.3896 141.664 26.9811C141.664 27.336 141.427 27.6909 141.191 27.8091C140.244 28.6372 138.943 29.2287 137.524 29.2287C134.448 29.2287 131.964 26.7445 131.964 23.5505C131.964 20.3565 134.448 17.8722 137.524 17.8722C138.707 18.1088 139.771 18.4637 140.599 19.0552ZM146.159 27.4543C147.106 27.4543 147.934 26.6262 147.934 25.4432C147.934 24.2603 147.106 23.4322 146.159 23.4322C145.213 23.4322 144.385 24.2603 144.385 25.4432C144.503 26.5079 145.213 27.4543 146.159 27.4543ZM148.407 28.5189V28.2823C148.052 29.1104 146.632 29.4653 145.804 29.4653C143.793 29.4653 142.256 27.5726 142.256 25.4432C142.256 23.3139 143.793 21.4211 145.923 21.4211C146.278 21.4211 147.461 21.5394 148.407 22.6041V22.3675C148.407 21.8943 148.762 21.5394 149.235 21.5394C149.708 21.5394 150.063 21.8943 150.063 22.3675V28.2823C150.063 28.7555 149.708 29.1104 149.235 29.1104C148.88 29.347 148.407 28.8738 148.407 28.5189ZM156.096 27.4543C157.043 27.4543 157.871 26.6262 157.871 25.4432C157.871 24.2603 157.043 23.4322 156.096 23.4322C155.15 23.4322 154.322 24.2603 154.322 25.4432C154.322 26.6262 155.15 27.4543 156.096 27.4543ZM154.322 28.7555V31.4763C154.322 32.0678 153.849 32.541 153.257 32.541C152.666 32.541 152.192 32.0678 152.192 31.4763V22.3675C152.192 21.8943 152.547 21.5394 153.02 21.5394C153.494 21.5394 153.849 21.8943 153.849 22.4858C154.677 21.6577 155.623 21.4211 156.333 21.4211C158.344 21.4211 160 23.1956 160 25.4432C160 27.5726 158.58 29.4653 156.451 29.4653C155.741 29.4653 154.913 29.2287 154.322 28.7555Z" fill="white" fill-opacity="0.4"/>
</g>
<defs>
<clipPath id="clip0_3_192">
<rect width="150" height="30" fill="white" transform="translate(10 9)"/>
</clipPath>
</defs>
</svg>
