<svg width="152" height="48" viewBox="0 0 152 48" fill="none" xmlns="http://www.w3.org/2000/svg">
<rect width="152" height="48" rx="8" fill="#1B1A1C"/>
<g clip-path="url(#clip0_3_215)">
<path d="M20.2152 35.2378C20.0969 35.1195 20.0001 34.3489 20.0001 33.5255V32.0283L21.7998 31.9343L23.5996 31.8405L23.6828 23.1547L23.7659 14.4689H21.883H20V12.7474V11.0259L27.5903 11.0067C31.765 10.9961 46.8008 10.9984 61.0033 11.0114C75.2058 11.0244 94.6114 11.0331 104.127 11.0306L121.428 11.0259L121.342 12.6691L121.256 14.3124L75.1561 14.3917L29.056 14.4709L29.1448 17.8347C29.2289 21.0195 29.2699 21.2036 29.9153 21.2954C30.4589 21.3728 30.6174 21.2143 30.6978 20.5129C30.7887 19.7209 30.9311 19.6238 32.1289 19.5371L33.4592 19.4408V22.7454V26.0499H32.3637C31.7612 26.0499 31.1625 26.0851 31.0334 26.1281C30.9043 26.1711 30.7533 25.8105 30.6978 25.3268C30.6174 24.6254 30.4589 24.4669 29.9153 24.5442C29.2603 24.6375 29.2337 24.7817 29.2337 28.2408V31.8404L31.0492 31.9346L32.8648 32.0289L32.7707 33.6561L32.6767 35.2833L26.5535 35.368C23.1857 35.4146 20.3335 35.3559 20.2152 35.2376L20.2152 35.2378ZM37.2996 34.976C36.7435 34.7342 36.0046 34.0707 35.6575 33.5015C35.0788 32.5524 35.0264 31.9314 35.0253 26.0139C35.0242 19.8678 35.0565 19.5204 35.7027 18.6987C36.8392 17.2539 38.0027 16.9729 42.8492 16.9729C49.8931 16.9729 50.3613 17.4014 50.3613 23.8489V27.615H45.3401H40.3189L40.4103 30.0408L40.5018 32.4665L42.2233 32.6529C44.6321 32.9136 45.0403 32.6356 45.0403 30.734V29.18H47.7008H50.3613V30.7605C50.3613 32.8857 49.6767 34.1029 48.0713 34.8317C46.9896 35.3229 46.0269 35.4254 42.5363 35.4209C39.6074 35.4174 38.0005 35.2806 37.2997 34.976H37.2996ZM45.0402 22.9456C45.0402 19.5569 44.9932 19.4769 42.9978 19.4769C40.3372 19.4769 40.3452 19.4675 40.3452 22.6404V25.424H42.6927H45.0402V22.9456ZM52.2393 33.6054C52.2393 31.8173 52.2591 31.7746 53.0218 31.9204L53.8043 32.07V26.0865V20.1029H53.0218C52.2915 20.1029 52.2393 19.9986 52.2393 18.5379V16.9729H55.6823H59.1253V18.0684C59.1253 18.671 59.1916 19.1639 59.2727 19.1639C59.3537 19.1639 60.0228 18.7417 60.7595 18.2257C62.3288 17.1263 64.6095 16.7052 65.9613 17.2651C67.4425 17.8787 67.7329 18.8258 67.7329 23.0438V26.8325L65.0048 26.9227L62.2768 27.013L62.1878 23.6362L62.0989 20.2594L60.6031 21.714L59.1073 23.1686L59.1946 27.5046C59.2797 31.7325 59.2994 31.843 59.9861 31.9405C60.6177 32.0302 60.6904 32.2159 60.6904 33.7403V35.44H56.4648H52.2393L52.2393 33.6054ZM69.4544 33.5827C69.4544 31.7724 69.4743 31.729 70.2369 31.8673L71.0194 32.0092V26.0561V20.1029H70.2369C69.5066 20.1029 69.4544 19.9986 69.4544 18.5379V16.9729H72.8974H76.3405V18.0684C76.3405 18.6709 76.4067 19.1639 76.4878 19.1639C76.5688 19.1639 77.245 18.7341 77.9903 18.2087C78.9476 17.5339 79.8492 17.2016 81.0617 17.0764C82.6056 16.9171 82.8791 16.9844 83.7848 17.7464L84.7915 18.5935V22.7912V26.9889H82.131H79.4705V23.8774C79.4705 22.166 79.3459 20.6889 79.1937 20.5948C79.0415 20.5008 78.3333 21.057 77.6199 21.8309L76.3228 23.2381L76.4099 27.5393C76.4947 31.7312 76.5148 31.843 77.2012 31.9405C77.8328 32.0302 77.9055 32.2159 77.9055 33.7403V35.44H73.68H69.4544V33.5827ZM88.6494 34.9833C87.0876 34.3039 86.5721 33.2178 86.418 30.2813C86.2751 27.5584 86.6486 25.7788 87.5144 25.0577C87.8386 24.7877 89.2904 24.5864 91.6457 24.4849L95.2771 24.3284L95.3739 22.6236C95.5308 19.8577 95.3366 19.4769 93.7687 19.4769C92.0835 19.4769 91.6776 19.884 91.6776 21.574V22.9199H89.0171H86.3566V21.5013C86.3566 19.3726 87.0604 17.9782 88.4222 17.4092C89.3231 17.0328 90.5747 16.9507 94.2177 17.0292C98.8196 17.1284 98.8725 17.1377 99.7312 17.9968L100.598 18.8642L100.705 25.3108C100.804 31.344 100.85 31.7674 101.409 31.9137C101.904 32.0431 102.007 32.3599 102.007 33.755V35.44L95.8249 35.4278C91.2782 35.4183 89.3802 35.3012 88.6494 34.9834L88.6494 34.9833ZM95.3667 29.5712L95.2771 26.5195L93.9237 26.4221C91.9684 26.2814 91.6776 26.6603 91.6776 29.3492C91.6776 32.5332 91.7346 32.623 93.7569 32.623H95.4563L95.3667 29.5712ZM103.885 33.6028C103.885 31.895 103.934 31.7682 104.589 31.803C105.293 31.8405 105.293 31.8366 105.378 25.9717L105.463 20.1029H104.674C103.935 20.1029 103.885 20.0022 103.885 18.5379V16.9729H107.328H110.771V18.0555V19.138L112.346 18.1586C113.445 17.4759 114.436 17.1365 115.619 17.0384C117.182 16.9088 117.392 16.9731 118.269 17.8502L119.222 18.8027V22.8958V26.9889H116.561H113.901V23.8774C113.901 22.0175 113.767 20.6831 113.568 20.5602C113.385 20.4471 112.681 20.9552 112.003 21.6893L110.771 23.0241V27.5105V31.997H111.553C112.293 31.997 112.336 32.0909 112.336 33.7185V35.44H108.11H103.885L103.885 33.6028ZM122.039 33.7185C122.039 31.9631 122.179 31.7987 123.526 31.9736C123.827 32.0127 123.917 30.6507 123.917 26.0636V20.1029H122.978C122.06 20.1029 122.039 20.0681 122.039 18.5379V16.9728H126.421H130.803V18.5379C130.803 20.0022 130.752 20.1029 130.013 20.1029H129.224L129.309 25.9717C129.394 31.7902 129.4 31.8413 130.099 31.9405C130.73 32.0301 130.803 32.2158 130.803 33.7402V35.44H126.421H122.039L122.039 33.7185ZM123.291 13.9206C120.875 12.714 122.718 11.0272 126.452 11.0263C127.589 11.026 128.965 11.1815 129.511 11.3717C131.397 12.0294 131.368 13.4307 129.452 14.1417C128.033 14.6685 124.537 14.543 123.291 13.9206H123.291Z" fill="white" fill-opacity="0.4"/>
</g>
<defs>
<clipPath id="clip0_3_215">
<rect width="110.907" height="24.44" fill="white" transform="translate(20 11)"/>
</clipPath>
</defs>
</svg>
