<svg width="197" height="48" viewBox="0 0 197 48" fill="none" xmlns="http://www.w3.org/2000/svg">
<path d="M196.4 16.3433H189.581L190.214 33.3298H195.767L196.4 16.3433ZM192.991 41.4371C194.781 41.4371 196.376 39.9411 196.4 38.0591C196.376 36.2253 194.781 34.7293 192.991 34.7293C191.103 34.7293 189.557 36.2253 189.581 38.0591C189.557 39.9411 191.103 41.4371 192.991 41.4371Z" fill="#02C076"/>
<path d="M72.9195 24.0643H79.3978C79.3735 19.2145 75.5985 16.0054 69.5586 16.0054C63.6282 16.0054 59.4393 19.1662 59.4758 23.8713C59.4636 27.7319 62.167 29.8794 66.5873 30.8204L69.0715 31.3512C71.8479 31.9544 72.7978 32.6421 72.8221 33.7641C72.7978 34.9826 71.6774 35.8391 69.5099 35.8391C66.9161 35.8391 65.3818 34.6327 65.2722 32.3646H59.557C59.5813 38.5657 63.1046 41.3405 69.6073 41.3405C75.9273 41.3405 79.7145 38.6381 79.7388 33.7641C79.7145 30 77.4495 27.3579 71.9453 26.1877L69.8996 25.7534C67.5372 25.2587 66.4777 24.571 66.5386 23.3887C66.5508 22.303 67.4641 21.5067 69.5586 21.5067C71.7505 21.5067 72.7856 22.4598 72.9195 24.0643Z" fill="white"/>
<path d="M84.7238 41.0509H91.9815L94.6118 31.1099H94.8066L97.4369 41.0509H104.695L109.371 22.5201H102.649L100.603 33.7158H100.457L97.9727 22.5201H91.4457L89.0589 33.8123H88.9128L86.7696 22.5201H80.0477L84.7238 41.0509Z" fill="white"/>
<path d="M114.914 41.3405C117.349 41.3405 119.188 40.5201 120.32 38.445H120.467V41.0509H126.75V28.3593C126.75 24.933 123.474 22.2788 118.129 22.2788C112.539 22.2788 109.787 25.1743 109.556 28.5523H115.742C115.9 27.4062 116.752 26.8633 118.031 26.8633C119.2 26.8633 120.028 27.3941 120.028 28.3593V28.4075C120.028 29.4812 118.835 29.819 115.693 30.0483C111.833 30.3257 108.825 31.87 108.825 35.9357C108.825 39.6273 111.334 41.3405 114.914 41.3405ZM117.106 37.1421C115.961 37.1421 115.157 36.5871 115.157 35.5496C115.157 34.5965 115.839 33.8606 117.398 33.6193C118.469 33.4504 119.371 33.2332 120.077 32.9437V34.4879C120.077 36.1769 118.628 37.1421 117.106 37.1421Z" fill="white"/>
<path d="M128.247 48H134.969V38.0107H135.067C135.846 39.8928 137.648 41.2922 140.278 41.2922C144.273 41.2922 147.634 38.2037 147.634 31.7855C147.634 25.0778 144.029 22.2788 140.327 22.2788C137.551 22.2788 135.797 23.8713 135.067 25.7534H134.92V22.5201H128.247V48ZM134.823 31.7855C134.823 29.0349 135.943 27.3941 137.794 27.3941C139.645 27.3941 140.717 29.0349 140.717 31.7855C140.717 34.5362 139.645 36.1769 137.794 36.1769C135.943 36.1769 134.823 34.4879 134.823 31.7855Z" fill="white"/>
<path d="M160.864 32.9437C160.876 34.7775 159.804 35.8874 158.136 35.8874C156.443 35.8874 155.469 34.7775 155.457 32.9437V22.5201H148.735V34.3432C148.747 38.3968 151.329 41.2922 155.262 41.2922C158.051 41.2922 160.194 39.8928 161.01 37.5281H161.204V41.0509H167.585V22.5201H160.864V32.9437Z" fill="white"/>
<path d="M169.484 41.0509H185.899V35.9839H178.155V35.8874L185.607 26.5737V22.5201H169.777V27.5871H177.668V27.6836L169.484 37.3834V41.0509Z" fill="white"/>
<path fill-rule="evenodd" clip-rule="evenodd" d="M32.1416 0.310563C33.5525 -0.536635 35.3601 0.447074 35.3952 2.08124L35.6079 11.986L45.9658 13.755C47.5916 14.0327 48.3044 15.95 47.2487 17.2061L40.3563 25.4075L45.5905 29.5741C46.8766 30.5979 46.5618 32.6171 45.0238 33.2087L35.5652 36.847L36.7247 42.6382C37.0457 44.2415 35.4944 45.5878 33.9324 45.0616L27.1853 42.7884C19.4901 46.4909 10.2706 44.5713 4.71145 38.2895C12.9453 40.6446 19.5448 38.1828 22.6773 35.6382C23.4401 35.0186 23.5514 33.9037 22.926 33.148C22.3006 32.3924 21.1752 32.282 20.4125 32.9016C17.8122 35.0139 10.7102 37.7904 1.51682 33.2618C-2.13246 24.8097 0.957837 14.7682 9.12193 9.86607C12.7143 7.70902 16.7425 6.8752 20.6279 7.224L32.1416 0.310563ZM16.833 21.7884C15.1459 22.8014 12.9494 22.2676 11.9269 20.5962C10.9043 18.9247 11.4431 16.7486 13.1302 15.7355C14.8173 14.7225 17.0138 15.2563 18.0364 16.9277C19.0589 18.5991 18.5201 20.7753 16.833 21.7884Z" fill="#02C076"/>
</svg>
