<svg width="180" height="48" viewBox="0 0 180 48" fill="none" xmlns="http://www.w3.org/2000/svg">
<rect width="180" height="48" rx="8" fill="#1B1A1C"/>
<g clip-path="url(#clip0_3_196)">
<path d="M19.0594 21.6063L24.895 15.7805L30.7337 21.6093L34.1293 18.2193L24.895 9L15.6638 18.2163L19.0594 21.6063Z" fill="white" fill-opacity="0.4"/>
<path d="M16.6614 23.9995L13.2659 20.6096L9.87024 23.9997L13.2658 27.3896L16.6614 23.9995Z" fill="white" fill-opacity="0.4"/>
<path d="M19.0594 26.3938L24.895 32.2196L30.7335 26.3909L34.131 29.779L34.1293 29.7809L24.895 39L15.6636 29.784L15.6588 29.7793L19.0594 26.3938Z" fill="white" fill-opacity="0.4"/>
<path d="M36.5244 27.3912L39.9201 24.0011L36.5246 20.6112L33.1289 24.0013L36.5244 27.3912Z" fill="white" fill-opacity="0.4"/>
<path d="M28.3392 23.9982H28.3407L24.895 20.5582L22.3486 23.1004H22.3484L22.056 23.3926L21.4524 23.9951L21.4477 23.9999L21.4524 24.0048L24.895 27.4418L28.3407 24.0018L28.3423 23.9999L28.3392 23.9982Z" fill="white" fill-opacity="0.4"/>
<path d="M45.2136 16.2693H52.5988C54.4318 16.2693 55.8178 16.7389 56.7572 17.6782C57.4842 18.4056 57.8475 19.3072 57.8475 20.3827V20.4282C57.8475 20.8826 57.7913 21.2843 57.6781 21.6326C57.5651 21.9813 57.4141 22.2953 57.2255 22.5756C57.0373 22.8562 56.8184 23.1023 56.5697 23.3142C56.3207 23.5265 56.0533 23.7085 55.7668 23.8596C56.6881 24.2084 57.4134 24.6816 57.9422 25.2801C58.4708 25.8789 58.7354 26.7084 58.7354 27.7688V27.814C58.7354 28.5414 58.5954 29.1776 58.3151 29.7233C58.0348 30.2685 57.6332 30.7232 57.1104 31.087C56.5875 31.4507 55.9588 31.7232 55.224 31.9051C54.4892 32.0869 53.6749 32.1776 52.7813 32.1776H45.2136V16.2693ZM51.8605 22.7007C52.6347 22.7007 53.2494 22.5685 53.7043 22.3031C54.1596 22.038 54.3872 21.6098 54.3872 21.0191V20.9736C54.3872 20.4436 54.1897 20.0384 53.7952 19.7578C53.4005 19.4775 52.8314 19.3373 52.0881 19.3373H48.6279V22.7007H51.8605ZM52.7939 29.1099C53.5679 29.1099 54.1745 28.9701 54.615 28.6895C55.055 28.4092 55.2753 27.9735 55.2753 27.3825V27.3373C55.2753 26.807 55.0702 26.3867 54.6606 26.0758C54.2507 25.7656 53.5907 25.6102 52.68 25.6102H48.6279V29.1101H52.7939V29.1099Z" fill="white" fill-opacity="0.4"/>
<path d="M63.1337 16.2693H66.6396V32.1781H63.1337V16.2693Z" fill="white" fill-opacity="0.4"/>
<path d="M71.9496 16.2693H75.1816L82.6485 26.0646V16.2693H86.1086V32.1781H83.1267L75.4095 22.0648V32.1781H71.9496V16.2693Z" fill="white" fill-opacity="0.4"/>
<path d="M96.7223 16.1558H99.9546L106.784 32.1781H103.119L101.662 28.6101H94.9238L93.467 32.1781H89.8925L96.7223 16.1558ZM100.41 25.5189L98.2928 20.3601L96.1762 25.5189H100.41Z" fill="white" fill-opacity="0.4"/>
<path d="M110.569 16.2693H113.801L121.268 26.0646V16.2693H124.728V32.1781H121.746L114.029 22.0648V32.1781H110.569V16.2693Z" fill="white" fill-opacity="0.4"/>
<path d="M137.345 32.4505C136.175 32.4505 135.091 32.2382 134.089 31.8143C133.087 31.3904 132.222 30.8106 131.494 30.0756C130.765 29.3409 130.196 28.4734 129.787 27.4735C129.377 26.4733 129.172 25.4052 129.172 24.2688V24.2235C129.172 23.0871 129.377 22.023 129.787 21.0304C130.196 20.0381 130.765 19.1669 131.494 18.4169C132.222 17.667 133.095 17.0758 134.112 16.6441C135.128 16.2124 136.252 15.9965 137.481 15.9965C138.224 15.9965 138.903 16.0574 139.518 16.1783C140.133 16.2998 140.69 16.4661 141.191 16.6782C141.692 16.8905 142.155 17.1481 142.58 17.4509C143.004 17.7542 143.399 18.0873 143.764 18.451L141.533 21.0191C140.91 20.4587 140.277 20.0189 139.632 19.7009C138.987 19.383 138.262 19.2237 137.458 19.2237C136.79 19.2237 136.172 19.3526 135.603 19.6102C135.034 19.8677 134.544 20.2236 134.134 20.6781C133.725 21.1326 133.406 21.6593 133.178 22.2576C132.951 22.8564 132.837 23.4963 132.837 24.178V24.2233C132.837 24.905 132.951 25.5492 133.178 26.1549C133.406 26.7612 133.72 27.2913 134.123 27.7457C134.525 28.2002 135.011 28.5604 135.58 28.8255C136.149 29.0909 136.775 29.2231 137.458 29.2231C138.369 29.2231 139.138 29.0565 139.768 28.7231C140.398 28.3902 141.024 27.9355 141.647 27.3595L143.877 29.6096C143.468 30.0491 143.042 30.4431 142.603 30.7912C142.162 31.14 141.681 31.439 141.157 31.6892C140.634 31.939 140.06 32.1288 139.439 32.2572C138.816 32.3859 138.118 32.4505 137.345 32.4505Z" fill="white" fill-opacity="0.4"/>
<path d="M148.003 16.2693H160V19.383H151.464V22.6102H158.976V25.7237H151.464V29.0646H160.114V32.1781H148.003V16.2693Z" fill="white" fill-opacity="0.4"/>
</g>
<defs>
<clipPath id="clip0_3_196">
<rect width="150" height="30" fill="white" transform="translate(10 9)"/>
</clipPath>
</defs>
</svg>
