<svg width="168" height="48" viewBox="0 0 168 48" fill="none" xmlns="http://www.w3.org/2000/svg">
<rect width="168" height="48" rx="8" fill="#1B1A1C"/>
<g clip-path="url(#clip0_3_225)">
<path d="M145.622 29.7011L145.571 28.29C145.524 26.8484 145.228 26.0799 144.109 25.6821C145.245 25.3183 145.871 24.322 145.871 22.8599C145.871 20.5545 144.636 19.4733 142.069 19.4733H136.333V31.4114H138.764V26.7633H141.348C142.695 26.7633 143.059 27.2462 143.106 28.6573L143.14 29.9153C143.157 30.5648 143.242 31.0646 143.423 31.4114H146.085V31.0476C145.639 30.8164 145.639 30.4015 145.626 29.7011H145.622ZM141.627 24.6892H138.768V21.5338H141.743C142.878 21.5338 143.436 22.0812 143.436 23.1115C143.436 24.2064 142.858 24.6892 141.627 24.6892Z" fill="white" fill-opacity="0.16"/>
<path d="M140.835 14.8591C135.014 14.8591 130.277 19.6433 130.277 25.5222C130.277 31.4012 135.014 36.1818 140.835 36.1818C146.656 36.1818 151.393 31.4012 151.393 25.5222C151.393 19.6399 146.656 14.8591 140.835 14.8591ZM140.835 33.6928C136.374 33.6928 132.743 30.0275 132.743 25.5222C132.743 21.017 136.374 17.3515 140.835 17.3515C145.296 17.3515 148.927 21.017 148.927 25.5222C148.927 30.0275 145.296 33.6928 140.835 33.6928Z" fill="white" fill-opacity="0.16"/>
<path d="M16.4488 28.5824C16.6834 33.1047 19.7538 35.733 25.1057 35.733C30.546 35.733 33.562 33.1352 33.562 28.7626C33.562 26.5762 32.7119 24.9816 30.988 24.0057C29.6688 23.2679 28.0333 22.8531 26.0408 22.3498C22.5624 21.4658 20.9541 21.4657 20.9541 19.4562C20.9541 17.8309 22.2122 16.8857 24.4937 16.8857C27.0948 16.8857 28.5297 17.9806 28.6759 20.0479H32.831C32.6848 15.7908 29.8184 13.3087 24.8745 13.3087C19.5804 13.3087 16.7718 15.6174 16.7718 19.7214C16.7718 21.935 17.5607 23.5909 19.05 24.5362C20.4271 25.4236 22.0081 25.7194 23.7014 26.1002C27.5641 26.9843 29.3185 27.3719 29.3185 29.3202C29.3185 31.0951 28.0605 32.0098 25.5138 32.0098C22.6236 32.0098 21.0391 30.9456 20.7195 28.5824H16.4488Z" fill="white" fill-opacity="0.4"/>
<path d="M48.2475 19.4563H44.0924V28.7321C44.0924 30.7995 42.8343 32.0405 40.903 32.0405C39.1213 32.0405 38.5025 31.0647 38.5025 28.9361V19.4563H34.3509V30.15C34.3509 33.7542 36.051 35.5563 39.4716 35.5563C41.4301 35.5563 43.0078 34.7878 44.1808 33.2815V35.1414H48.2475V19.4563Z" fill="white" fill-opacity="0.4"/>
<path d="M49.2539 41.4352H53.2934V33.193C54.3135 34.8183 55.8945 35.6752 57.8837 35.6752C61.5117 35.6752 64.2624 32.394 64.2624 27.2257C64.2624 22.2036 61.5967 18.9224 57.8258 18.9224C55.8061 18.9224 54.4018 19.7486 53.2016 21.5813V19.4562H49.2573L49.2539 41.4352ZM60.1346 27.4025C60.1346 30.3267 58.8187 32.0404 56.7718 32.0404C54.5787 32.0404 53.2934 30.3845 53.2934 27.4025C53.2934 24.1825 54.4902 22.5301 56.6834 22.5301C58.9071 22.5301 60.1346 24.2131 60.1346 27.4025Z" fill="white" fill-opacity="0.4"/>
<path d="M69.3457 25.6583C69.5191 23.5331 70.6038 22.4111 72.3855 22.4111C74.3168 22.4111 75.4015 23.5331 75.4593 25.6583H69.3457ZM75.3981 30.3846C74.871 31.5985 73.9666 32.1289 72.5623 32.1289C70.5426 32.1289 69.4579 30.8572 69.3423 28.4091H79.7299C79.7571 28.0249 79.7572 27.6678 79.7572 27.3142C79.7572 21.9078 77.037 18.8953 72.2971 18.8953C67.8224 18.8953 65.0445 22.0574 65.0445 27.1951C65.0445 32.4825 67.938 35.6753 72.3549 35.6753C76.0441 35.6753 78.7031 33.6658 79.5531 30.3846H75.3981Z" fill="white" fill-opacity="0.4"/>
<path d="M80.8146 35.138H84.9731V26.8416C84.9731 24.4784 86.1427 23.295 88.3937 23.295H89.7674V19.0448C89.5633 19.0108 89.3593 19.0109 89.1553 19.0109C87.1662 19.0109 85.7619 19.9867 84.6773 22.1424V19.4562H80.818L80.8146 35.138Z" fill="white" fill-opacity="0.4"/>
<path d="M93.6674 27.1951C93.6674 24.2709 94.9867 22.5573 97.0336 22.5573C99.2267 22.5573 100.515 24.2131 100.515 27.1951C100.515 30.4151 99.3151 32.0711 97.122 32.0711C94.9016 32.0711 93.6708 30.3845 93.6708 27.1951H93.6674ZM104.551 13.9037H100.519V21.4046C99.4919 19.7827 97.8836 18.9225 95.8945 18.9225C92.2665 18.9225 89.5157 22.2036 89.5157 27.3719C89.5157 32.394 92.1781 35.6719 95.9523 35.6719C97.972 35.6719 99.4035 34.8456 100.604 33.0163V35.1414H104.555L104.551 13.9037Z" fill="white" fill-opacity="0.4"/>
<path d="M105.429 35.138H109.584V26.8416C109.584 24.4784 110.753 23.295 113.004 23.295H114.381V19.0448C114.177 19.0108 113.973 19.0109 113.769 19.0109C111.777 19.0109 110.373 19.9867 109.291 22.1424V19.4562H105.429V35.138Z" fill="white" fill-opacity="0.4"/>
<path d="M116.966 41.4352C117.697 41.5236 118.285 41.5508 118.72 41.5508C121.705 41.5508 122.817 40.6055 123.725 37.9466L130.101 19.4529H125.741L122.555 30.7721L119.278 19.4562H114.711L120.301 35.3182C120.354 35.4597 120.383 35.6092 120.386 35.7602C120.386 37.3311 119.57 38.0962 117.931 38.0962C117.697 38.0962 117.346 38.0962 116.962 38.035V41.4352H116.966Z" fill="white" fill-opacity="0.4"/>
<path d="M39.407 16.4573C39.407 16.4573 39.9816 15.8793 40.121 15.6106C40.121 15.6106 40.5869 16.2124 40.9303 16.4845L41.3179 15.8112C41.3179 15.8112 40.6004 15.1414 40.5086 14.9271C40.5086 14.9271 40.9847 13.9003 41.1207 12.7783L40.8078 12.3431C40.8078 12.3431 40.6447 12.3737 40.5563 12.3737H39.5498C39.5498 12.3737 39.373 12.3635 39.305 12.3295V13.1217C39.305 13.1217 39.3934 13.1013 39.5702 13.1013H40.3318C40.3318 13.1013 40.1891 14.0125 40.1108 14.2131C40.1108 14.2131 39.7912 13.4583 39.7708 13.1795L39.2268 13.5365C39.2268 13.5365 39.5396 14.6484 39.7368 14.951C39.7368 14.951 39.2608 15.6446 38.9854 15.8554L39.407 16.4573Z" fill="white" fill-opacity="0.4"/>
<path d="M38.4685 16.5287C38.2509 16.5899 37.4621 16.5798 37.4621 16.5798L37.2716 15.8113C37.3736 15.8453 38.0367 15.8555 38.0367 15.8555C38.2781 15.8555 38.3019 15.2435 38.3019 15.2435C38.4583 13.8698 38.4005 12.843 38.4005 12.843H38.0027V15.6311L37.6967 15.6209H36.7548L36.4012 15.6311L36.4352 15.2741V13.9718L36.17 14.6076C36.0243 14.3382 35.8982 14.0586 35.7926 13.7712V17.3618C35.7926 17.5794 35.8265 17.7529 35.8265 17.7529H35.0105C35.0411 17.6245 35.0592 17.4935 35.0649 17.3618V14.2846C34.9289 14.9884 34.3781 15.8793 34.3781 15.8793L33.9701 15.121C34.7555 13.9718 34.9629 12.6865 34.9629 12.6865H34.5107L34.2047 12.7307V11.8739L34.4665 11.9078H35.0105V10.8164C35.0105 10.7144 34.9629 10.5376 34.9629 10.5376H35.8368C35.8028 10.592 35.7687 10.8369 35.7687 10.8369V11.9248H36.0578C36.1258 11.9248 36.2346 11.8977 36.2346 11.8977V12.6899C36.2006 12.6797 36.0373 12.6695 36.0373 12.6695H35.7926C35.881 13.0673 36.4318 13.8494 36.4318 13.8494V12.8905C36.4318 12.8327 36.4114 12.6219 36.4114 12.6219C36.4556 12.6321 36.6562 12.6423 36.6562 12.6423H37.3498L37.8361 11.5951H36.714C36.4352 11.5951 36.2244 11.6188 36.2244 11.6188V10.8164C36.2788 10.8368 36.6222 10.8606 36.6222 10.8606H40.767C40.9003 10.859 41.0333 10.8476 41.1649 10.8266V11.6427C41.1071 11.6189 40.7738 11.6087 40.7738 11.6087H38.6759L38.4107 12.1765H38.8527C38.9309 12.1765 39.1622 12.1561 39.1622 12.1561C39.1622 12.1561 39.0738 14.8898 38.9752 15.4441C38.9752 15.4441 38.9071 16.3961 38.4651 16.5287H38.4685ZM37.394 13.3019H37.02V14.9545H37.394V13.3019Z" fill="white" fill-opacity="0.4"/>
<path d="M36.0816 17.5182V16.6783C36.0816 16.6783 36.3264 16.7123 36.4114 16.7123H40.8623L41.2363 16.6851V17.5079C41.2363 17.5079 41.0323 17.474 40.8826 17.474H36.4114C36.4114 17.474 36.1734 17.4808 36.0816 17.5182Z" fill="white" fill-opacity="0.4"/>
<path d="M47.8735 14.3288C47.8055 14.3186 47.5674 14.3186 47.5674 14.3186H45.0445C44.9017 14.3186 44.6909 14.3288 44.6909 14.3288C44.7147 14.2608 44.7351 13.9037 44.7351 13.9037V13.1047H43.6436C43.6538 16.3927 42.7596 17.7188 42.7596 17.7188L42.1305 16.9843C42.9568 15.8113 42.8038 11.5474 42.8038 11.5474C42.8038 11.459 42.7698 11.0952 42.7698 11.0952C42.814 11.1292 43.29 11.1293 43.29 11.1293H45.5647V10.8164C45.5647 10.7382 45.5443 10.524 45.5443 10.524H46.4624C46.4284 10.6022 46.4284 10.7926 46.4284 10.7926V11.1157H48.9037C49.0466 11.1157 49.2675 11.0952 49.2675 11.0952V11.884C49.2131 11.8738 48.9581 11.8739 48.9581 11.8739H47.8667V12.3975H48.9887C49.0567 12.3975 49.2778 12.3634 49.2778 12.3634V13.1218C49.2336 13.1116 49.0227 13.1115 49.0227 13.1115H47.8531V14.05C47.8531 14.1248 47.8769 14.3288 47.8769 14.3288H47.8735ZM44.7487 11.8636H43.6606V12.3975H44.7487V11.8636ZM47.0608 11.8636H45.5579V12.3975H47.0608V11.8636ZM47.0608 13.1013H45.5579V13.6352H47.0608V13.1013Z" fill="white" fill-opacity="0.4"/>
<path d="M44.2829 14.7743H47.7851C47.8785 14.768 47.9716 14.7566 48.0639 14.7402L48.4719 15.1993C48.2866 15.4043 48.1052 15.6128 47.9279 15.8249C47.8429 15.9337 47.0438 16.5287 47.0438 16.5287C47.8531 16.8721 49.3457 16.9028 49.3457 16.9028L49.0227 17.763C47.1118 17.5386 46.2482 17.0048 46.2482 17.0048C45.5001 17.4842 43.6436 17.763 43.6436 17.763L43.3342 16.9606C44.5481 16.9504 45.5239 16.5389 45.5239 16.5389C45.0819 16.3009 44.4835 15.4406 44.4835 15.4406L43.9326 15.4747V14.7266C43.953 14.7402 44.2829 14.7743 44.2829 14.7743ZM46.2958 16.1921C46.5032 16.1377 47.2547 15.4441 47.2547 15.4441H45.3981C45.5783 15.7365 46.2958 16.1921 46.2958 16.1921Z" fill="white" fill-opacity="0.4"/>
<path d="M52.406 10.8266V11.3264H53.3886C53.5416 11.3264 53.7286 11.2924 53.7286 11.2924V12.0745C53.6776 12.0643 53.4328 12.0405 53.4328 12.0405H52.4128V12.5301H53.5008V12.7307C54.259 11.8058 54.4699 10.5546 54.4699 10.5546L55.3199 10.6907C55.2961 10.8913 55.0785 11.527 55.0785 11.527H56.935C57.088 11.527 57.3533 11.4931 57.3533 11.4931V12.3431C57.3022 12.3295 56.9452 12.3091 56.9452 12.3091H54.7351C54.6909 12.4179 54.2591 13.0436 54.2591 13.0436H56.2176C56.459 13.0436 56.6018 13.0095 56.6018 13.0095L57.0676 13.6012C56.4284 14.0568 55.0105 15.7977 54.9255 15.978C54.8337 16.1548 54.5821 16.522 54.8235 16.692C55.0683 16.8586 55.7313 16.7804 56.0951 16.7702C56.459 16.76 56.5372 16.4131 56.5372 16.4131C56.6358 16.0969 56.5814 15.5291 56.5814 15.5291L57.3974 15.8419C57.309 17.2496 56.8874 17.372 56.8874 17.372C56.5134 17.6271 55.4763 17.5828 55.4763 17.5828C54.4597 17.5828 54.1945 17.4128 54.1945 17.4128C53.443 17.0252 54.0618 15.8759 54.3066 15.4747C54.548 15.0735 55.7959 13.812 55.7959 13.812H54.3713C54.2668 13.8212 54.1632 13.8393 54.0619 13.8664V13.2883L53.8612 13.5128L53.477 13.132V15.1176C53.477 15.2298 53.4872 15.3625 53.4872 15.3625C53.443 15.3523 53.1778 15.3522 53.1778 15.3522H52.4263V15.8624H53.2424C53.3784 15.8624 53.6164 15.8453 53.6164 15.8453V16.6376C53.5071 16.6213 53.397 16.6099 53.2866 16.6036H52.3924V17.4264C52.3965 17.5438 52.4147 17.6602 52.4467 17.7732H51.5865C51.6103 17.695 51.6409 17.4162 51.6409 17.4162V16.6137H50.682C50.546 16.6137 50.3148 16.6478 50.3148 16.6478V15.8317C50.3488 15.8657 50.6684 15.8793 50.6684 15.8793H51.6409V15.3319H50.5222C50.535 15.2429 50.543 15.1532 50.5461 15.0633V12.843C50.5461 12.775 50.5222 12.52 50.5222 12.52C50.6038 12.5302 50.6583 12.5301 50.8453 12.5403H51.6409V12.0303H50.6039C50.5003 12.0378 50.3971 12.0491 50.2944 12.0643V11.2585C50.325 11.2925 50.6345 11.3027 50.6345 11.3027H51.6307V10.8266C51.6307 10.7246 51.5967 10.5648 51.5967 10.5648H52.457C52.457 10.5988 52.406 10.8266 52.406 10.8266ZM52.7459 13.1796H51.3111V13.6148H52.7459V13.1796ZM52.7459 14.2371H51.3111V14.6723H52.7459V14.2371Z" fill="white" fill-opacity="0.4"/>
<path d="M58.5195 12.173L59.1588 12.2546C59.1588 12.2546 59.203 13.8051 58.9275 14.5532L58.2747 14.2267C58.2747 14.2267 58.5433 13.2916 58.5195 12.173Z" fill="white" fill-opacity="0.4"/>
<path d="M61.2601 10.8266H64.2318C64.2318 10.8266 64.4732 10.8266 64.531 10.8028V12.3634C64.531 12.3634 64.531 12.4859 64.5412 12.5879L64.2556 12.5777H61.6035C61.6035 12.5777 61.3247 12.598 61.2805 12.6116L61.2907 12.2649V11.1836C61.2907 11.1836 61.2805 10.9388 61.2601 10.8266ZM63.7456 11.459H62.0557V11.986H63.7456V11.459Z" fill="white" fill-opacity="0.4"/>
<path d="M59.3253 10.6804H60.189C60.189 10.6804 60.1448 10.915 60.1448 11.0374V12.5403C60.1448 12.5403 60.5528 12.0405 60.5868 11.8603L61.0356 12.3975L60.7058 12.8123C60.7058 12.8123 60.8962 12.8327 61.0356 12.8327H62.3855C62.3855 12.8327 62.6745 12.8463 62.7188 12.8225V14.3968H63.0486V13.1218C63.0486 13.1218 63.0486 12.8633 63.0384 12.8225L63.4124 12.8327H64.9085C64.9085 12.8327 65.1499 12.8327 65.2247 12.8225C65.2247 12.8225 65.2145 12.979 65.2145 13.0776V14.2268L65.2349 14.4818H63.3138V14.8933H64.8949C64.8949 14.8933 65.2825 14.8932 65.3369 14.8626V15.6005C65.3369 15.6005 65.1601 15.5902 64.8847 15.5902H63.681C63.681 15.5902 64.0754 16.2125 65.5579 16.7599L65.1363 17.542C65.1363 17.542 63.6266 16.7192 63.2934 16.0391V17.5793C63.2934 17.5793 63.3036 17.7664 63.3376 17.8072H62.4433C62.4433 17.8072 62.5079 17.6405 62.5079 17.5215V16.0595C62.5079 16.0595 61.9231 16.998 60.6208 17.5896L60.2128 16.9503C60.2128 16.9503 61.5593 16.4268 62.0897 15.6141H60.852C60.852 15.6141 60.6752 15.6583 60.6412 15.6583L60.9065 15.8691L60.5188 16.6171C60.5188 16.6171 59.8592 15.9915 59.8048 15.7229C59.8048 15.7229 59.5464 16.8959 58.8187 17.6746L58.2407 17.0285C58.2407 17.0285 59.1825 16.2057 59.2947 14.2948C59.2947 14.2948 59.4036 11.5848 59.3628 11.0952C59.3628 11.0952 59.3627 10.7144 59.3253 10.6804ZM60.1006 13.4243C60.0682 13.8854 60.0388 14.3468 60.0122 14.8083C60.036 14.9511 60.5732 15.6005 60.5732 15.6005V14.8626L61.0051 14.8864H62.4739V14.4954H60.937C60.8415 14.4991 60.7462 14.507 60.6514 14.5192C60.665 14.4614 60.665 14.254 60.665 14.254V13.1489C60.665 13.0571 60.631 12.8803 60.631 12.8803C60.5732 12.9823 60.1006 13.4243 60.1006 13.4243ZM62.0659 13.4142H61.3349V13.9309H62.0659V13.4142ZM64.5175 13.4142H63.6912V13.9309H64.5175V13.4142Z" fill="white" fill-opacity="0.4"/>
<path d="M71.0357 10.8572H69.9374V11.1972L69.8694 15.2536C69.8694 15.4134 69.8354 16.8653 71.0016 17.3652C71.0016 17.3652 74.2182 18.3955 75.1601 15.0565C75.1601 15.0565 75.3369 14.543 75.3641 14.4988L74.3984 13.8698C74.3984 13.8698 74.242 15.3115 73.5246 16.0187C72.8072 16.7327 71.4845 16.7157 71.1377 16.2363C70.7908 15.7569 70.8894 14.8558 70.8894 13.9751C70.8894 13.0911 70.9677 11.357 70.9779 11.2652L71.0357 10.8572Z" fill="white" fill-opacity="0.4"/>
<path d="M76.1258 11.9282V12.8531H77.36C77.36 12.8531 76.7548 14.7946 75.8707 15.9949L76.765 16.5559C76.765 16.5559 78.0231 13.9854 78.3223 12.8157C78.3223 12.8157 79.6586 12.6933 79.8252 12.6253L79.8116 11.7004C79.8116 11.7004 79.4103 11.85 78.5637 11.9282L78.8595 10.7178L77.8293 10.5919C77.8293 10.5919 77.819 10.8299 77.8054 10.9013L77.5946 11.9962L76.5644 11.9724C76.5644 11.9724 76.204 11.9622 76.1224 11.9282" fill="white" fill-opacity="0.4"/>
<path d="M80.206 12.3737L80.6786 11.6086C80.6786 11.6086 82.0557 12.1017 82.8955 12.6797L82.4705 13.4821C82.4705 13.4821 81.294 12.7171 80.206 12.3737Z" fill="white" fill-opacity="0.4"/>
<path d="M80.3386 13.2917H81.2702C81.2702 13.2917 81.1818 13.5638 81.1682 13.676C81.1614 13.7916 81.1682 14.9919 81.226 15.2299C81.226 15.2299 82.3481 15.7229 82.8615 16.301L82.4127 17.1952C82.4127 17.1952 81.9095 16.6001 81.2022 16.1887C81.2022 16.1887 81.3042 17.185 80.4406 17.5148C79.5769 17.848 78.5263 17.5726 78.1556 17.1271C77.785 16.6817 77.6796 15.6651 78.5127 15.1857C78.5127 15.1857 79.1077 14.7607 80.2944 15.0123C80.2944 15.0123 80.2196 13.574 80.342 13.2917H80.3386ZM78.8629 16.0425C78.5569 16.5763 79.0397 16.8517 79.7911 16.7735C80.4848 16.6987 80.2978 15.8487 80.2978 15.8487C79.9815 15.7807 79.1655 15.5052 78.8629 16.0425Z" fill="white" fill-opacity="0.4"/>
<path d="M83.9088 12.1561C83.9088 12.1561 84.9629 12.2818 86.799 12.0438C86.799 12.0438 86.3298 10.9116 86.3162 10.7994L87.3022 10.6633C87.3022 10.6633 87.6422 11.782 87.7612 11.9418C87.7612 11.9418 89.1417 11.6766 89.6688 11.459L89.7911 12.4212C89.7911 12.4212 88.3223 12.7409 88.0673 12.7613C88.0673 12.7613 88.7609 14.169 89.4545 15.0496L88.5467 15.4712C88.5467 15.4712 88.0673 14.8762 86.561 14.9442C86.561 14.9442 84.9833 14.9204 85.0309 15.9167C85.0751 16.9095 87.9312 16.7837 89.0635 16.1002L89.1859 17.1374C89.1859 17.1374 87.4858 17.7664 85.7449 17.5046C85.7449 17.5046 83.7286 17.2733 84.0788 15.4712C84.0788 15.4712 84.6364 13.4481 87.989 14.3492C87.989 14.3492 87.2138 13.1591 87.1356 12.8769C87.1356 12.8769 84.8914 13.1285 84.2794 13.0809L83.9632 13.0945L83.8884 12.1561" fill="white" fill-opacity="0.4"/>
<path d="M90.9812 11.3705H92.0251C92.0251 11.3705 91.9911 11.6562 92.0013 11.8024C92.0013 11.8024 91.8551 14.2029 92.3379 15.5154C92.3379 15.5154 92.8989 17.3107 93.5279 14.2675L94.2998 15.0019C94.2998 15.0019 93.8068 17.1713 92.8207 17.1849C91.8346 17.1951 90.937 15.9846 90.9846 11.3705" fill="white" fill-opacity="0.4"/>
<path d="M94.0754 12.112L94.9016 11.6902C94.9016 11.6902 96.2617 13.4244 96.5338 16.0086L95.6973 16.3622C95.6973 16.3622 95.6293 13.9957 94.072 12.112" fill="white" fill-opacity="0.4"/>
<path d="M68.9411 10.4526H68.1455C67.2512 11.6766 66.8058 12.9279 66.8058 14.0635C66.8058 15.1992 67.2512 16.4437 68.1455 17.6746H68.9411C68.2634 16.5926 67.9072 15.3402 67.9143 14.0635C67.9143 12.7612 68.2475 11.595 68.9411 10.4526Z" fill="white" fill-opacity="0.4"/>
<path d="M97.1084 10.4526C97.802 11.595 98.1386 12.7612 98.1386 14.0635C98.1386 15.3624 97.7986 16.5321 97.1084 17.6746H97.9074C98.8051 16.4437 99.2437 15.1958 99.2437 14.0635C99.2437 12.9279 98.8017 11.68 97.9074 10.4526H97.1084Z" fill="white" fill-opacity="0.4"/>
</g>
<defs>
<clipPath id="clip0_3_225">
<rect width="135.845" height="32" fill="white" transform="translate(16 10)"/>
</clipPath>
</defs>
</svg>
